<svg width="28" height="26" viewBox="0 0 28 26" fill="none" xmlns="http://www.w3.org/2000/svg">
<path d="M26.7203 12.6828L21.4375 10.7031V4.76953C21.4375 3.94922 20.9289 3.21641 20.1578 2.92656L14.6891 0.875783C14.2461 0.706252 13.7539 0.706252 13.3055 0.875783L7.83672 2.92656C7.06563 3.21641 6.55703 3.94922 6.55703 4.76953V10.7031L1.27422 12.6828C0.508594 12.9727 0 13.7055 0 14.5258V20.5469C0 21.2906 0.421094 21.9742 1.08828 22.3078L6.55703 25.0422C7.10938 25.3211 7.76563 25.3211 8.31797 25.0422L14 22.1984L19.682 25.0422C20.2344 25.3211 20.8906 25.3211 21.443 25.0422L26.9117 22.3078C27.5789 21.9742 28 21.2906 28 20.5469V14.5258C28 13.7055 27.4914 12.9727 26.7203 12.6828ZM19.5781 10.7469L14.9297 12.4914V8.76172L19.5781 6.73828V10.7469ZM8.42188 4.69297L14 2.60391L19.5781 4.69297V4.72578L14 6.98984L8.42188 4.72578V4.69297ZM13.0156 20.6125L8.36719 22.9367V18.6109L13.0156 16.4891V20.6125ZM13.0156 14.4875L7.4375 16.7516L1.85938 14.4875V14.4547L7.4375 12.3656L13.0156 14.4547V14.4875ZM26.1406 20.6125L21.4922 22.9367V18.6109L26.1406 16.4891V20.6125ZM26.1406 14.4875L20.5625 16.7516L14.9844 14.4875V14.4547L20.5625 12.3656L26.1406 14.4547V14.4875Z" fill="#0C0C0C"/>
</svg>
