<svg width="36" height="22" viewBox="0 0 36 22" fill="none" xmlns="http://www.w3.org/2000/svg">
<path d="M34.3125 0H27.5625C26.6309 0 25.875 0.738375 25.875 1.65V8.25C25.875 9.16094 26.6309 9.9 27.5625 9.9H34.3125C35.2441 9.9 36 9.16094 36 8.25V1.65C36 0.738375 35.2441 0 34.3125 0ZM32.625 6.6H29.25V3.3H32.625V6.6ZM34.3125 12.1H27.5625C26.6309 12.1 25.875 12.8384 25.875 13.75V20.35C25.875 21.2609 26.6309 22 27.5625 22H34.3125C35.2441 22 36 21.2609 36 20.35V13.75C36 12.8384 35.2441 12.1 34.3125 12.1ZM32.625 18.7H29.25V15.4H32.625V18.7ZM8.4375 0H1.6875C0.755859 0 0 0.738375 0 1.65V8.25C0 9.16094 0.755859 9.9 1.6875 9.9H8.4375C9.36914 9.9 10.125 9.16094 10.125 8.25V1.65C10.125 0.738375 9.36914 0 8.4375 0ZM6.75 6.6H3.375V3.3H6.75V6.6ZM8.4375 12.1H1.6875C0.755859 12.1 0 12.8384 0 13.75V20.35C0 21.2609 0.755859 22 1.6875 22H8.4375C9.36914 22 10.125 21.2609 10.125 20.35V13.75C10.125 12.8384 9.36914 12.1 8.4375 12.1ZM6.75 18.7H3.375V15.4H6.75V18.7ZM21.375 0H14.625C13.6934 0 12.9375 0.738375 12.9375 1.65V8.25C12.9375 9.16094 13.6934 9.9 14.625 9.9H21.375C22.3066 9.9 23.0625 9.16094 23.0625 8.25V1.65C23.0625 0.738375 22.3066 0 21.375 0ZM19.6875 6.6H16.3125V3.3H19.6875V6.6ZM21.375 12.1H14.625C13.6934 12.1 12.9375 12.8384 12.9375 13.75V20.35C12.9375 21.2609 13.6934 22 14.625 22H21.375C22.3066 22 23.0625 21.2609 23.0625 20.35V13.75C23.0625 12.8384 22.3066 12.1 21.375 12.1ZM19.6875 18.7H16.3125V15.4H19.6875V18.7Z" fill="black"/>
</svg>
