<svg width="31" height="24" viewBox="0 0 31 24" fill="none" xmlns="http://www.w3.org/2000/svg">
<path d="M29.2898 21.7497H28.7006L17.1584 5.75551L19.381 1.63613C19.626 1.30238 19.5538 0.832697 19.2196 0.588009L18.615 0.14504C18.2803 -0.100116 17.8104 -0.0279286 17.565 0.30629L15.0204 3.83223L12.4759 0.30629C12.2308 -0.0279286 11.7605 -0.100116 11.4258 0.14504L10.8213 0.588009C10.4871 0.832697 10.4143 1.30238 10.6598 1.63613L12.8824 5.75551L1.34018 21.7497H0.75102C0.336082 21.7497 0 22.0854 0 22.4997V23.2497C0 23.6641 0.336082 23.9997 0.75102 23.9997H29.2898C29.7047 23.9997 30.0408 23.6641 30.0408 23.2497V22.4997C30.0408 22.0854 29.7047 21.7497 29.2898 21.7497ZM15.0204 8.63665L24.4082 21.7497H20.6541L15.0204 13.5183L9.38674 21.7497H5.25714L15.0204 8.63665Z" fill="#0C0C0C"/>
</svg>
